<?xml version="1.0" encoding="utf-8"?>
<!-- Generator: Adobe Illustrator 22.1.0, SVG Export Plug-In . SVG Version: 6.00 Build 0)  -->
<svg version="1.1" id="Layer_1" xmlns="http://www.w3.org/2000/svg" xmlns:xlink="http://www.w3.org/1999/xlink" x="0px" y="0px"
	 viewBox="0 0 200 150" style="enable-background:new 0 0 200 150;" xml:space="preserve">
<style type="text/css">
	.st0{fill:#37B34A;}
	.st1{fill:#EA2227;}
</style>
<g>
	<path class="st0" d="M37.5,33.8c-1.5-0.4-2.7-1-3.7-1.6l1.7-3.8c1,0.6,2.1,1.1,3.2,1.5c1.1,0.3,2.3,0.5,3.4,0.5
		c1.2,0,2-0.2,2.7-0.5c0.6-0.3,0.9-0.8,0.9-1.3s-0.3-0.9-0.8-1.3c-0.6-0.3-1.6-0.7-3.2-1c-1.9-0.4-3.5-0.9-4.5-1.4
		c-1.1-0.6-1.8-1.2-2.3-2c-0.4-0.8-0.6-1.7-0.6-2.8c0-1.3,0.4-2.4,1.1-3.4c0.7-1,1.7-1.8,3-2.4c1.3-0.6,2.8-0.9,4.4-0.9
		c1.5,0,2.9,0.2,4.3,0.6c1.4,0.4,2.5,1,3.3,1.6l-1.7,3.8c-0.9-0.6-1.9-1.1-2.9-1.5c-1-0.3-2-0.5-3-0.5S41,17.6,40.4,18
		c-0.6,0.4-0.9,0.9-0.9,1.5c0,0.3,0.1,0.6,0.3,0.9c0.2,0.2,0.6,0.5,1.2,0.7c0.6,0.2,1.4,0.5,2.6,0.7c1.9,0.4,3.3,0.9,4.4,1.5
		c1.1,0.6,1.8,1.2,2.3,2C50.8,26,51,26.9,51,28c0,2-0.8,3.6-2.3,4.7c-1.6,1.1-3.8,1.7-6.6,1.7C40.5,34.4,39,34.2,37.5,33.8"/>
	<path class="st0" d="M69.2,19.5v14.7h-5.1v-2c-0.4,0.7-1,1.2-1.8,1.6c-0.8,0.4-1.7,0.6-2.7,0.6c-1.3,0-2.4-0.3-3.4-0.9
		c-1-0.6-1.7-1.5-2.3-2.6c-0.5-1.1-0.8-2.5-0.8-4s0.3-2.9,0.8-4c0.6-1.2,1.3-2.1,2.3-2.7c1-0.7,2.1-1,3.3-1c1,0,1.8,0.2,2.6,0.6
		s1.4,1,1.9,1.7v-1.9L69.2,19.5L69.2,19.5z M63.3,29.6c0.5-0.6,0.8-1.6,0.8-2.7c0-1.2-0.3-2.1-0.8-2.8c-0.5-0.6-1.2-1-2.1-1
		c-0.9,0-1.6,0.3-2.1,1s-0.8,1.6-0.8,2.8c0,1.2,0.2,2.1,0.8,2.7c0.5,0.6,1.2,0.9,2.2,0.9C62.1,30.5,62.8,30.2,63.3,29.6"/>
	<path class="st0" d="M72.6,19.5v-0.4c0-2,0.5-3.5,1.5-4.7c1-1.1,2.5-1.7,4.5-1.7c1.1,0,2,0.1,2.7,0.4v4C80.8,17,80.4,17,80,17
		c-0.6,0-1.1,0.2-1.5,0.5c-0.4,0.4-0.6,0.9-0.6,1.6v0.3h2.9v3.8h-2.9V34h-5.2V23.3C72.6,23.3,72.7,19.5,72.6,19.5"/>
	<path class="st0" d="M98.4,19.5v14.7h-5.1v-2c-0.4,0.7-1,1.2-1.8,1.6c-0.8,0.4-1.7,0.6-2.7,0.6c-1.3,0-2.4-0.3-3.4-0.9
		c-1-0.6-1.7-1.5-2.3-2.6c-0.5-1.1-0.8-2.5-0.8-4s0.3-2.9,0.8-4c0.6-1.2,1.3-2.1,2.3-2.7c1-0.7,2.1-1,3.3-1c1,0,1.8,0.2,2.6,0.6
		c0.8,0.4,1.4,1,1.9,1.7v-1.9L98.4,19.5L98.4,19.5z M92.5,29.6c0.5-0.6,0.8-1.6,0.8-2.7c0-1.2-0.3-2.1-0.8-2.8c-0.5-0.6-1.2-1-2.1-1
		s-1.6,0.3-2.1,1s-0.8,1.6-0.8,2.8c0,1.2,0.2,2.1,0.8,2.7c0.5,0.6,1.2,0.9,2.2,0.9C91.3,30.5,92,30.2,92.5,29.6"/>
	<path class="st0" d="M112.5,19.5v4.8c-0.8-0.4-1.6-0.6-2.4-0.6c-2.2,0-3.3,1.1-3.3,3.2v7.4h-5.2V23.7c0-1.6-0.1-3-0.2-4.2h4.9
		l0.3,2.5c0.3-0.9,0.9-1.6,1.7-2.1c0.8-0.5,1.6-0.7,2.6-0.7C111.5,19.1,112.1,19.3,112.5,19.5"/>
	<path class="st0" d="M113.8,12.3h5.5V17h-5.5V12.3z M114,19.5h5.2v14.7H114V19.5z"/>
	<path class="st0" d="M123.8,32.4c-1.4-1.3-2.1-3.2-2.1-5.5c0-1.5,0.3-2.9,1-4.1s1.6-2.1,2.9-2.7c1.2-0.6,2.7-1,4.3-1
		c1.1,0,2.1,0.2,3.2,0.5c1,0.3,1.9,0.7,2.5,1.3l-1.3,3.6c-0.5-0.4-1.1-0.8-1.8-1c-0.7-0.3-1.4-0.4-2-0.4c-1.1,0-1.9,0.3-2.5,0.9
		c-0.6,0.6-0.9,1.5-0.9,2.7s0.3,2.2,0.9,2.8c0.6,0.6,1.4,0.9,2.5,0.9c0.6,0,1.3-0.1,2-0.4c0.7-0.2,1.3-0.6,1.8-1l1.3,3.6
		c-0.6,0.6-1.5,1-2.5,1.3c-1.1,0.3-2.2,0.5-3.4,0.5C127.1,34.4,125.2,33.7,123.8,32.4"/>
	<path class="st0" d="M140.3,33.5c-1.2-0.6-2.1-1.5-2.8-2.7s-1-2.5-1-4.1s0.3-2.9,1-4.1s1.6-2,2.8-2.7c1.2-0.6,2.6-0.9,4.3-0.9
		c1.6,0,3,0.3,4.2,0.9s2.1,1.5,2.8,2.7c0.7,1.1,1,2.5,1,4.1s-0.3,2.9-1,4.1c-0.7,1.1-1.6,2-2.8,2.7c-1.2,0.6-2.6,0.9-4.2,0.9
		C143,34.4,141.6,34.1,140.3,33.5 M147.4,26.7c0-1.3-0.2-2.2-0.7-2.8c-0.5-0.6-1.2-0.9-2.1-0.9c-1,0-1.7,0.3-2.2,0.9
		s-0.7,1.5-0.7,2.8s0.2,2.2,0.7,2.8c0.5,0.6,1.2,0.9,2.2,0.9C146.5,30.5,147.4,29.3,147.4,26.7"/>
	<path class="st0" d="M177.6,20.7c0.8,1,1.2,2.6,1.2,4.8v8.8h-5.2v-8.6c0-0.9-0.1-1.5-0.4-1.9c-0.3-0.4-0.7-0.6-1.3-0.6
		c-0.7,0-1.3,0.3-1.7,0.8s-0.6,1.3-0.6,2.3v8h-5.2v-8.6c0-0.9-0.1-1.5-0.4-1.9c-0.3-0.4-0.7-0.6-1.3-0.6c-0.7,0-1.3,0.3-1.7,0.8
		s-0.6,1.3-0.6,2.3v8h-5.2V23.7c0-1.6-0.1-3-0.2-4.2h4.9l0.3,2.1c0.4-0.8,1.1-1.4,1.9-1.8c0.8-0.4,1.7-0.6,2.8-0.6
		c2.1,0,3.5,0.9,4.3,2.7c0.5-0.8,1.2-1.5,2.1-1.9c0.9-0.5,1.8-0.7,2.8-0.7C175.5,19.1,176.7,19.6,177.6,20.7"/>
	<path class="st1" d="M30.1,31.9c-2.2,0.8-4.4,1.4-6.5,1.8c-3.1,0.6-5.9,0.7-7.9,0.3c-1.9-0.4-3.2-1.3-3.7-2.7
		c-0.7-1.8,0.1-4.4,2.3-7.4C17.1,20,22,16,27.9,12.5c0.2-0.1,0.3-0.4,0.1-0.6c-0.1-0.2-0.4-0.3-0.5-0.1c-5.1,2.9-10,6.2-14.1,9.4
		c-8.5,6.6-13,12.6-12.3,16.1c0.2,1,0.9,2.2,3.2,2.7l0,0c0.9,0.2,2,0.3,3.3,0.2c5.5-0.3,13.8-3.1,22.8-7.6c0.2-0.1,0.3-0.3,0.2-0.5
		C30.5,31.9,30.3,31.8,30.1,31.9"/>
	<path class="st1" d="M62.9,3.8c-0.2-0.9-1-2.1-3.2-2.5C58.8,1,57.7,1,56.4,1c-6,0.3-15.1,3.5-25,8.7c-0.2,0.1-0.3,0.3-0.2,0.5
		c0.1,0.2,0.3,0.3,0.5,0.2c4.6-2.3,9.2-4,13.3-4.8c3.1-0.6,5.8-0.7,7.9-0.3c1.9,0.4,3.2,1.3,3.7,2.7c0.7,1.8-0.1,4.4-2.3,7.4
		c-0.3,0.4-0.6,0.8-1,1.2c-0.1,0.2-0.1,0.4,0,0.5s0.1,0.1,0.2,0.1c0.1,0,0.3,0,0.4-0.1C60.4,11.6,63.6,6.7,62.9,3.8"/>
	<path class="st0" d="M121.8,37.9h-3.2v-0.8h7.4v0.8h-3.2v8.3h-1C121.8,46.2,121.8,37.9,121.8,37.9z"/>
	<path class="st0" d="M137.6,39.4l-2.6,6.9h-0.9l-2.2-5.6l-2.2,5.6h-0.9l-2.6-6.9h0.9l2.2,5.9l2.2-5.9h0.8l2.2,5.9l2.2-5.9H137.6z"
		/>
	<path class="st0" d="M143.7,40c0.5,0.4,0.7,1.1,0.7,2v4.3h-0.9v-1.1c-0.2,0.4-0.5,0.6-0.9,0.8s-0.9,0.3-1.4,0.3
		c-0.8,0-1.4-0.2-1.8-0.5c-0.5-0.4-0.7-0.9-0.7-1.5s0.2-1.1,0.6-1.4c0.4-0.4,1.1-0.5,2-0.5h2.2V42c0-0.6-0.2-1-0.5-1.4
		s-0.8-0.5-1.5-0.5c-0.4,0-0.9,0.1-1.3,0.2c-0.4,0.1-0.7,0.3-1,0.6l-0.4-0.7c0.3-0.3,0.8-0.5,1.3-0.7s1-0.2,1.5-0.2
		C142.5,39.3,143.2,39.5,143.7,40z M142.6,45.2c0.4-0.2,0.7-0.6,0.8-1V43h-2.2c-1.2,0-1.8,0.4-1.8,1.2c0,0.4,0.2,0.7,0.5,0.9
		s0.7,0.3,1.3,0.3C141.8,45.6,142.2,45.4,142.6,45.2z"/>
	<path class="st0" d="M157.2,39.4l-2.6,6.9h-0.9l-2.2-5.6l-2.2,5.6h-0.9l-2.6-6.9h0.9l2.2,5.9l2.2-5.9h0.8l2.2,5.9l2.2-5.9H157.2z"
		/>
	<path class="st0" d="M164.8,43.1H159c0.1,0.7,0.3,1.3,0.8,1.7s1.1,0.7,1.9,0.7c0.4,0,0.8-0.1,1.2-0.2c0.4-0.2,0.7-0.4,0.9-0.7
		l0.5,0.6c-0.3,0.4-0.7,0.6-1.1,0.8c-0.5,0.2-1,0.3-1.5,0.3c-0.7,0-1.3-0.2-1.9-0.5c-0.5-0.3-1-0.7-1.3-1.3
		c-0.3-0.5-0.5-1.1-0.5-1.8s0.1-1.3,0.4-1.8c0.3-0.5,0.7-0.9,1.2-1.2s1.1-0.4,1.7-0.4c0.6,0,1.2,0.1,1.7,0.4
		c0.5,0.3,0.9,0.7,1.2,1.2s0.4,1.1,0.4,1.8L164.8,43.1z M159.8,40.7c-0.4,0.4-0.7,1-0.8,1.7h4.9c-0.1-0.7-0.3-1.2-0.8-1.7
		c-0.4-0.4-1-0.6-1.7-0.6C160.8,40.1,160.3,40.3,159.8,40.7z"/>
	<path class="st0" d="M171.8,45.5v0.8h-5.6v-0.6l4.3-5.5h-4.3v-0.8h5.4V40l-4.3,5.5H171.8z"/>
	<path class="st0" d="M178.3,40c0.5,0.4,0.7,1.1,0.7,2v4.3h-0.9v-1.1c-0.2,0.4-0.5,0.6-0.9,0.8s-0.9,0.3-1.4,0.3
		c-0.8,0-1.4-0.2-1.8-0.5c-0.5-0.4-0.7-0.9-0.7-1.5s0.2-1.1,0.6-1.4c0.4-0.4,1.1-0.5,2-0.5h2.2V42c0-0.6-0.2-1-0.5-1.4
		c-0.3-0.3-0.8-0.5-1.5-0.5c-0.4,0-0.9,0.1-1.3,0.2c-0.4,0.1-0.7,0.3-1,0.6l-0.4-0.7c0.3-0.3,0.8-0.5,1.3-0.7s1-0.2,1.5-0.2
		C177.1,39.3,177.8,39.5,178.3,40z M177.2,45.2c0.4-0.2,0.7-0.6,0.8-1V43h-2.2c-1.2,0-1.8,0.4-1.8,1.2c0,0.4,0.2,0.7,0.5,0.9
		s0.7,0.3,1.3,0.3C176.4,45.6,176.9,45.4,177.2,45.2z"/>
</g>
<g>
	<path class="st0" d="M27.6,75c-1.1-0.3-2-0.7-2.7-1.2l1.2-2.8c0.7,0.4,1.5,0.8,2.3,1.1c0.8,0.2,1.7,0.4,2.5,0.4
		c0.9,0,1.5-0.1,2-0.4c0.4-0.2,0.7-0.6,0.7-0.9s-0.2-0.7-0.6-0.9c-0.4-0.2-1.2-0.5-2.3-0.7c-1.4-0.3-2.6-0.7-3.3-1
		c-0.8-0.4-1.3-0.9-1.7-1.5c-0.3-0.6-0.4-1.2-0.4-2c0-0.9,0.3-1.8,0.8-2.5c0.5-0.7,1.2-1.3,2.2-1.8c0.9-0.4,2-0.7,3.2-0.7
		c1.1,0,2.1,0.1,3.1,0.4c1,0.3,1.8,0.7,2.4,1.2l-1.2,2.8c-0.7-0.4-1.4-0.8-2.1-1.1C33,63.1,32.2,63,31.5,63c-0.7,0-1.3,0.1-1.8,0.4
		c-0.4,0.3-0.7,0.7-0.7,1.1c0,0.2,0.1,0.4,0.2,0.7c0.1,0.1,0.4,0.4,0.9,0.5c0.4,0.1,1,0.4,1.9,0.5c1.4,0.3,2.4,0.7,3.2,1.1
		c0.8,0.4,1.3,0.9,1.7,1.5c0.4,0.5,0.5,1.2,0.5,2c0,1.5-0.6,2.6-1.7,3.4C34.7,75,33,75.4,31,75.4C29.8,75.4,28.7,75.3,27.6,75"/>
	<path class="st0" d="M50.8,64.5v10.7h-3.7v-1.5c-0.3,0.5-0.7,0.9-1.3,1.2s-1.2,0.4-2,0.4c-0.9,0-1.8-0.2-2.5-0.7
		c-0.7-0.4-1.2-1.1-1.7-1.9C39.3,72,39,71,39,69.9c0-1.1,0.2-2.1,0.6-2.9c0.4-0.9,0.9-1.5,1.7-2c0.7-0.5,1.5-0.7,2.4-0.7
		c0.7,0,1.3,0.1,1.9,0.4c0.6,0.3,1,0.7,1.4,1.2v-1.4L50.8,64.5L50.8,64.5z M46.5,71.9c0.4-0.4,0.6-1.2,0.6-2c0-0.9-0.2-1.5-0.6-2
		c-0.4-0.4-0.9-0.7-1.5-0.7s-1.2,0.2-1.5,0.7c-0.4,0.5-0.6,1.2-0.6,2s0.1,1.5,0.6,2c0.4,0.4,0.9,0.7,1.6,0.7
		C45.6,72.5,46.1,72.3,46.5,71.9"/>
	<path class="st0" d="M53.3,64.5v-0.3c0-1.5,0.4-2.6,1.1-3.4c0.7-0.8,1.8-1.2,3.3-1.2c0.8,0,1.5,0.1,2,0.3v2.9
		c-0.4-0.1-0.7-0.1-0.9-0.1c-0.4,0-0.8,0.1-1.1,0.4c-0.3,0.3-0.4,0.7-0.4,1.2v0.2h2.1v2.8h-2.1v7.9h-3.8v-7.8
		C53.3,67.3,53.4,64.5,53.3,64.5"/>
	<path class="st0" d="M72.1,64.5v10.7h-3.7v-1.5c-0.3,0.5-0.7,0.9-1.3,1.2s-1.2,0.4-2,0.4c-0.9,0-1.8-0.2-2.5-0.7
		c-0.7-0.4-1.2-1.1-1.7-1.9c-0.4-0.8-0.6-1.8-0.6-2.9c0-1.1,0.2-2.1,0.6-2.9c0.4-0.9,0.9-1.5,1.7-2c0.7-0.5,1.5-0.7,2.4-0.7
		c0.7,0,1.3,0.1,1.9,0.4c0.6,0.3,1,0.7,1.4,1.2v-1.4L72.1,64.5L72.1,64.5z M67.8,71.9c0.4-0.4,0.6-1.2,0.6-2c0-0.9-0.2-1.5-0.6-2
		c-0.4-0.4-0.9-0.7-1.5-0.7s-1.2,0.2-1.5,0.7c-0.4,0.5-0.6,1.2-0.6,2s0.1,1.5,0.6,2c0.4,0.4,0.9,0.7,1.6,0.7
		C66.9,72.5,67.5,72.3,67.8,71.9"/>
	<path class="st0" d="M82.4,64.5V68c-0.6-0.3-1.2-0.4-1.8-0.4c-1.6,0-2.4,0.8-2.4,2.3v5.4h-3.8v-7.7c0-1.2-0.1-2.2-0.1-3.1h3.6
		l0.2,1.8c0.2-0.7,0.7-1.2,1.2-1.5c0.6-0.4,1.2-0.5,1.9-0.5C81.7,64.2,82.1,64.4,82.4,64.5"/>
	<path class="st0" d="M83.4,59.3h4v3.4h-4V59.3z M83.5,64.5h3.8v10.7h-3.8V64.5z"/>
	<path class="st0" d="M90.7,73.9c-1-0.9-1.5-2.3-1.5-4c0-1.1,0.2-2.1,0.7-3c0.5-0.9,1.2-1.5,2.1-2c0.9-0.4,2-0.7,3.1-0.7
		c0.8,0,1.5,0.1,2.3,0.4c0.7,0.2,1.4,0.5,1.8,0.9l-0.9,2.6c-0.4-0.3-0.8-0.6-1.3-0.7c-0.5-0.2-1-0.3-1.5-0.3c-0.8,0-1.4,0.2-1.8,0.7
		c-0.4,0.4-0.7,1.1-0.7,2c0,0.9,0.2,1.6,0.7,2c0.4,0.4,1,0.7,1.8,0.7c0.4,0,0.9-0.1,1.5-0.3c0.5-0.1,0.9-0.4,1.3-0.7l0.9,2.6
		c-0.4,0.4-1.1,0.7-1.8,0.9c-0.8,0.2-1.6,0.4-2.5,0.4C93.1,75.4,91.7,74.9,90.7,73.9"/>
	<path class="st0" d="M102.7,74.7c-0.9-0.4-1.5-1.1-2-2c-0.5-0.9-0.7-1.8-0.7-3c0-1.2,0.2-2.1,0.7-3c0.5-0.9,1.2-1.5,2-2
		c0.9-0.4,1.9-0.7,3.1-0.7c1.2,0,2.2,0.2,3.1,0.7c0.9,0.4,1.5,1.1,2,2c0.5,0.8,0.7,1.8,0.7,3c0,1.2-0.2,2.1-0.7,3
		c-0.5,0.8-1.2,1.5-2,2c-0.9,0.4-1.9,0.7-3.1,0.7C104.7,75.4,103.7,75.2,102.7,74.7 M107.9,69.8c0-0.9-0.1-1.6-0.5-2
		s-0.9-0.7-1.5-0.7c-0.7,0-1.2,0.2-1.6,0.7c-0.4,0.4-0.5,1.1-0.5,2s0.1,1.6,0.5,2c0.4,0.4,0.9,0.7,1.6,0.7
		C107.3,72.5,107.9,71.7,107.9,69.8"/>
	<path class="st0" d="M130,65.4c0.6,0.7,0.9,1.9,0.9,3.5v6.4h-3.8V69c0-0.7-0.1-1.1-0.3-1.4c-0.2-0.3-0.5-0.4-0.9-0.4
		c-0.5,0-0.9,0.2-1.2,0.6c-0.3,0.4-0.4,0.9-0.4,1.7v5.8h-3.8V69c0-0.7-0.1-1.1-0.3-1.4c-0.2-0.3-0.5-0.4-0.9-0.4
		c-0.5,0-0.9,0.2-1.2,0.6c-0.3,0.4-0.4,0.9-0.4,1.7v5.8h-3.8v-7.7c0-1.2-0.1-2.2-0.1-3.1h3.6l0.2,1.5c0.3-0.6,0.8-1,1.4-1.3
		c0.6-0.3,1.2-0.4,2-0.4c1.5,0,2.6,0.7,3.1,2c0.4-0.6,0.9-1.1,1.5-1.4c0.7-0.4,1.3-0.5,2-0.5C128.4,64.2,129.3,64.6,130,65.4"/>
	<path class="st1" d="M22.2,73.6c-1.6,0.6-3.2,1-4.7,1.3c-2.3,0.4-4.3,0.5-5.8,0.2c-1.4-0.3-2.3-0.9-2.7-2c-0.5-1.3,0.1-3.2,1.7-5.4
		c2-2.8,5.6-5.8,9.9-8.3c0.1-0.1,0.2-0.3,0.1-0.4c-0.1-0.1-0.3-0.2-0.4-0.1C16.6,61,13,63.4,10,65.8c-6.2,4.8-9.5,9.2-9,11.8
		c0.1,0.7,0.7,1.6,2.3,2l0,0c0.7,0.1,1.5,0.2,2.4,0.1c4-0.2,10.1-2.3,16.7-5.6c0.1-0.1,0.2-0.2,0.1-0.4
		C22.5,73.6,22.4,73.5,22.2,73.6"/>
	<path class="st1" d="M46.2,53c-0.1-0.7-0.7-1.5-2.3-1.8C43.2,51,42.4,51,41.4,51c-4.4,0.2-11,2.6-18.3,6.4C23,57.4,23,57.6,23,57.7
		c0.1,0.1,0.2,0.2,0.4,0.1c3.4-1.7,6.7-2.9,9.7-3.5c2.3-0.4,4.2-0.5,5.8-0.2c1.4,0.3,2.3,0.9,2.7,2c0.5,1.3-0.1,3.2-1.7,5.4
		c-0.2,0.3-0.4,0.6-0.7,0.9c-0.1,0.1-0.1,0.3,0,0.4c0.1,0.1,0.1,0.1,0.1,0.1c0.1,0,0.2,0,0.3-0.1C44.4,58.7,46.7,55.2,46.2,53"/>
	<path class="st0" d="M89.2,78h-2.3v-0.6h5.4V78h-2.3V84h-0.7C89.2,84,89.2,78,89.2,78z"/>
	<path class="st0" d="M100.8,79l-1.9,5h-0.7L96.6,80L95,84.1h-0.7l-1.9-5h0.7l1.6,4.3l1.6-4.3h0.6l1.6,4.3l1.6-4.3H100.8z"/>
	<path class="st0" d="M105.2,79.5c0.4,0.3,0.5,0.8,0.5,1.5v3.1h-0.7v-0.8c-0.1,0.3-0.4,0.4-0.7,0.6c-0.3,0.1-0.7,0.2-1,0.2
		c-0.6,0-1-0.1-1.3-0.4c-0.4-0.3-0.5-0.7-0.5-1.1c0-0.4,0.1-0.8,0.4-1c0.3-0.3,0.8-0.4,1.5-0.4h1.6v-0.3c0-0.4-0.1-0.7-0.4-1
		s-0.6-0.4-1.1-0.4c-0.3,0-0.7,0.1-0.9,0.1c-0.3,0.1-0.5,0.2-0.7,0.4l-0.3-0.5c0.2-0.2,0.6-0.4,0.9-0.5c0.4-0.1,0.7-0.1,1.1-0.1
		C104.3,79,104.8,79.1,105.2,79.5z M104.4,83.3c0.3-0.1,0.5-0.4,0.6-0.7v-0.9h-1.6c-0.9,0-1.3,0.3-1.3,0.9c0,0.3,0.1,0.5,0.4,0.7
		c0.2,0.1,0.5,0.2,0.9,0.2C103.8,83.6,104.1,83.4,104.4,83.3z"/>
	<path class="st0" d="M115.1,79l-1.9,5h-0.7l-1.6-4.1l-1.6,4.1h-0.7l-1.9-5h0.7l1.6,4.3l1.6-4.3h0.6l1.6,4.3l1.6-4.3H115.1z"/>
	<path class="st0" d="M120.6,81.8h-4.2c0.1,0.5,0.2,0.9,0.6,1.2c0.4,0.3,0.8,0.5,1.4,0.5c0.3,0,0.6-0.1,0.9-0.1
		c0.3-0.1,0.5-0.3,0.7-0.5l0.4,0.4c-0.2,0.3-0.5,0.4-0.8,0.6c-0.4,0.1-0.7,0.2-1.1,0.2c-0.5,0-0.9-0.1-1.4-0.4
		c-0.4-0.2-0.7-0.5-0.9-0.9c-0.2-0.4-0.4-0.8-0.4-1.3c0-0.5,0.1-0.9,0.3-1.3c0.2-0.4,0.5-0.7,0.9-0.9c0.4-0.2,0.8-0.3,1.2-0.3
		c0.4,0,0.9,0.1,1.2,0.3s0.7,0.5,0.9,0.9s0.3,0.8,0.3,1.3L120.6,81.8z M117,80c-0.3,0.3-0.5,0.7-0.6,1.2h3.6
		c-0.1-0.5-0.2-0.9-0.6-1.2c-0.3-0.3-0.7-0.4-1.2-0.4C117.7,79.6,117.3,79.7,117,80z"/>
	<path class="st0" d="M125.7,83.5v0.6h-4.1v-0.4l3.1-4h-3.1V79h3.9v0.4l-3.1,4H125.7z"/>
	<path class="st0" d="M130.5,79.5c0.4,0.3,0.5,0.8,0.5,1.5v3.1h-0.7v-0.8c-0.1,0.3-0.4,0.4-0.7,0.6c-0.3,0.1-0.7,0.2-1,0.2
		c-0.6,0-1-0.1-1.3-0.4c-0.4-0.3-0.5-0.7-0.5-1.1c0-0.4,0.1-0.8,0.4-1c0.3-0.3,0.8-0.4,1.5-0.4h1.6v-0.3c0-0.4-0.1-0.7-0.4-1
		c-0.2-0.2-0.6-0.4-1.1-0.4c-0.3,0-0.7,0.1-0.9,0.1c-0.3,0.1-0.5,0.2-0.7,0.4l-0.3-0.5c0.2-0.2,0.6-0.4,0.9-0.5
		c0.4-0.1,0.7-0.1,1.1-0.1C129.6,79,130.1,79.1,130.5,79.5z M129.7,83.3c0.3-0.1,0.5-0.4,0.6-0.7v-0.9h-1.6c-0.9,0-1.3,0.3-1.3,0.9
		c0,0.3,0.1,0.5,0.4,0.7c0.2,0.1,0.5,0.2,0.9,0.2C129.1,83.6,129.5,83.4,129.7,83.3z"/>
</g>
<g>
	<path class="st0" d="M21.5,129.4c-0.8-0.2-1.5-0.6-2.1-0.9l1-2.1c0.6,0.3,1.2,0.6,1.8,0.8c0.6,0.2,1.3,0.3,1.9,0.3
		c0.7,0,1.1-0.1,1.5-0.3c0.3-0.2,0.5-0.4,0.5-0.7s-0.2-0.5-0.4-0.7c-0.3-0.2-0.9-0.4-1.8-0.6c-1.1-0.2-2-0.5-2.5-0.8
		c-0.6-0.3-1-0.7-1.3-1.1c-0.2-0.4-0.3-1-0.3-1.6c0-0.7,0.2-1.3,0.6-1.9c0.4-0.6,1-1,1.7-1.3s1.6-0.5,2.5-0.5c0.8,0,1.6,0.1,2.4,0.3
		c0.8,0.2,1.4,0.6,1.9,0.9l-1,2.1c-0.5-0.3-1.1-0.6-1.6-0.8c-0.6-0.2-1.1-0.3-1.7-0.3s-1,0.1-1.3,0.3c-0.3,0.2-0.5,0.5-0.5,0.8
		c0,0.2,0.1,0.3,0.2,0.5c0.1,0.1,0.3,0.3,0.7,0.4c0.3,0.1,0.8,0.3,1.5,0.4c1.1,0.2,1.9,0.5,2.5,0.8c0.6,0.3,1,0.7,1.3,1.1
		c0.3,0.4,0.4,0.9,0.4,1.5c0,1.1-0.4,2-1.3,2.6c-0.9,0.6-2.1,1-3.7,1C23.2,129.8,22.3,129.7,21.5,129.4"/>
	<path class="st0" d="M39.3,121.4v8.3h-2.9v-1.1c-0.2,0.4-0.6,0.7-1,0.9c-0.4,0.2-1,0.3-1.5,0.3c-0.7,0-1.3-0.2-1.9-0.5
		c-0.6-0.3-1-0.8-1.3-1.5c-0.3-0.6-0.4-1.4-0.4-2.2s0.2-1.6,0.4-2.2c0.3-0.7,0.7-1.2,1.3-1.5c0.6-0.4,1.2-0.6,1.9-0.6
		c0.6,0,1,0.1,1.5,0.3c0.4,0.2,0.8,0.6,1.1,1v-1.1L39.3,121.4L39.3,121.4z M36,127.1c0.3-0.3,0.4-0.9,0.4-1.5c0-0.7-0.2-1.2-0.4-1.6
		c-0.3-0.3-0.7-0.6-1.2-0.6s-0.9,0.2-1.2,0.6c-0.3,0.4-0.4,0.9-0.4,1.6c0,0.7,0.1,1.2,0.4,1.5c0.3,0.3,0.7,0.5,1.2,0.5
		C35.3,127.6,35.7,127.4,36,127.1"/>
	<path class="st0" d="M41.2,121.4v-0.2c0-1.1,0.3-2,0.8-2.6c0.6-0.6,1.4-1,2.5-1c0.6,0,1.1,0.1,1.5,0.2v2.2
		c-0.3-0.1-0.5-0.1-0.7-0.1c-0.3,0-0.6,0.1-0.8,0.3c-0.2,0.2-0.3,0.5-0.3,0.9v0.2h1.6v2.1h-1.6v6.1h-2.9v-6
		C41.2,123.5,41.3,121.4,41.2,121.4"/>
	<path class="st0" d="M55.7,121.4v8.3h-2.9v-1.1c-0.2,0.4-0.6,0.7-1,0.9c-0.4,0.2-1,0.3-1.5,0.3c-0.7,0-1.3-0.2-1.9-0.5
		c-0.6-0.3-1-0.8-1.3-1.5c-0.3-0.6-0.4-1.4-0.4-2.2s0.2-1.6,0.4-2.2c0.3-0.7,0.7-1.2,1.3-1.5c0.6-0.4,1.2-0.6,1.9-0.6
		c0.6,0,1,0.1,1.5,0.3c0.4,0.2,0.8,0.6,1.1,1v-1.1L55.7,121.4L55.7,121.4z M52.4,127.1c0.3-0.3,0.4-0.9,0.4-1.5
		c0-0.7-0.2-1.2-0.4-1.6c-0.3-0.3-0.7-0.6-1.2-0.6c-0.5,0-0.9,0.2-1.2,0.6c-0.3,0.4-0.4,0.9-0.4,1.6c0,0.7,0.1,1.2,0.4,1.5
		c0.3,0.3,0.7,0.5,1.2,0.5C51.7,127.6,52.1,127.4,52.4,127.1"/>
	<path class="st0" d="M63.6,121.4v2.7c-0.4-0.2-0.9-0.3-1.3-0.3c-1.2,0-1.9,0.6-1.9,1.8v4.2h-2.9v-6c0-0.9-0.1-1.7-0.1-2.4h2.8
		l0.2,1.4c0.2-0.5,0.5-0.9,1-1.2c0.4-0.3,0.9-0.4,1.5-0.4C63.1,121.2,63.4,121.3,63.6,121.4"/>
	<path class="st0" d="M64.4,117.3h3.1v2.6h-3.1V117.3z M64.5,121.4h2.9v8.3h-2.9V121.4z"/>
	<path class="st0" d="M70,128.6c-0.8-0.7-1.2-1.8-1.2-3.1c0-0.8,0.2-1.6,0.6-2.3c0.4-0.7,0.9-1.2,1.6-1.5c0.7-0.3,1.5-0.6,2.4-0.6
		c0.6,0,1.2,0.1,1.8,0.3c0.6,0.2,1.1,0.4,1.4,0.7l-0.7,2c-0.3-0.2-0.6-0.4-1-0.6c-0.4-0.2-0.8-0.2-1.1-0.2c-0.6,0-1.1,0.2-1.4,0.5
		c-0.3,0.3-0.5,0.8-0.5,1.5s0.2,1.2,0.5,1.6c0.3,0.3,0.8,0.5,1.4,0.5c0.3,0,0.7-0.1,1.1-0.2c0.4-0.1,0.7-0.3,1-0.6l0.7,2
		c-0.3,0.3-0.8,0.6-1.4,0.7c-0.6,0.2-1.2,0.3-1.9,0.3C71.8,129.8,70.8,129.4,70,128.6"/>
	<path class="st0" d="M79.3,129.3c-0.7-0.3-1.2-0.8-1.6-1.5c-0.4-0.7-0.6-1.4-0.6-2.3s0.2-1.6,0.6-2.3c0.4-0.7,0.9-1.1,1.6-1.5
		c0.7-0.3,1.5-0.5,2.4-0.5c0.9,0,1.7,0.2,2.4,0.5c0.7,0.3,1.2,0.8,1.6,1.5c0.4,0.6,0.6,1.4,0.6,2.3s-0.2,1.6-0.6,2.3
		c-0.4,0.6-0.9,1.1-1.6,1.5c-0.7,0.3-1.5,0.5-2.4,0.5C80.8,129.8,80,129.6,79.3,129.3 M83.2,125.4c0-0.7-0.1-1.2-0.4-1.6
		s-0.7-0.5-1.2-0.5c-0.6,0-1,0.2-1.2,0.5s-0.4,0.8-0.4,1.6s0.1,1.2,0.4,1.6c0.3,0.3,0.7,0.5,1.2,0.5
		C82.7,127.6,83.2,126.9,83.2,125.4"/>
	<path class="st0" d="M100.2,122.1c0.4,0.6,0.7,1.5,0.7,2.7v4.9H98v-4.8c0-0.5-0.1-0.8-0.2-1.1c-0.2-0.2-0.4-0.3-0.7-0.3
		c-0.4,0-0.7,0.2-1,0.4s-0.3,0.7-0.3,1.3v4.5h-2.9v-4.8c0-0.5-0.1-0.8-0.2-1.1c-0.2-0.2-0.4-0.3-0.7-0.3c-0.4,0-0.7,0.2-1,0.4
		c-0.2,0.3-0.3,0.7-0.3,1.3v4.5h-2.9v-6c0-0.9-0.1-1.7-0.1-2.4h2.8l0.2,1.2c0.2-0.4,0.6-0.8,1.1-1c0.4-0.2,1-0.3,1.6-0.3
		c1.2,0,2,0.5,2.4,1.5c0.3-0.4,0.7-0.8,1.2-1.1c0.5-0.3,1-0.4,1.6-0.4C99,121.2,99.7,121.5,100.2,122.1"/>
	<path class="st1" d="M17.3,128.4c-1.2,0.4-2.5,0.8-3.7,1c-1.7,0.3-3.3,0.4-4.4,0.2c-1.1-0.2-1.8-0.7-2.1-1.5
		c-0.4-1,0.1-2.5,1.3-4.2c1.6-2.2,4.3-4.4,7.6-6.4c0.1-0.1,0.2-0.2,0.1-0.3c-0.1-0.1-0.2-0.2-0.3-0.1c-2.9,1.6-5.6,3.5-7.9,5.3
		c-4.8,3.7-7.3,7.1-6.9,9c0.1,0.6,0.5,1.2,1.8,1.5l0,0c0.5,0.1,1.1,0.2,1.9,0.1c3.1-0.2,7.8-1.7,12.8-4.3c0.1-0.1,0.2-0.2,0.1-0.3
		C17.6,128.4,17.4,128.3,17.3,128.4"/>
	<path class="st1" d="M35.8,112.6c-0.1-0.5-0.6-1.2-1.8-1.4c-0.5-0.2-1.1-0.2-1.9-0.2c-3.4,0.2-8.5,2-14,4.9
		c-0.1,0.1-0.2,0.2-0.1,0.3s0.2,0.2,0.3,0.1c2.6-1.3,5.2-2.2,7.5-2.7c1.7-0.3,3.3-0.4,4.4-0.2c1.1,0.2,1.8,0.7,2.1,1.5
		c0.4,1-0.1,2.5-1.3,4.2c-0.2,0.2-0.3,0.4-0.6,0.7c-0.1,0.1-0.1,0.2,0,0.3c0.1,0.1,0.1,0.1,0.1,0.1c0.1,0,0.2,0,0.2-0.1
		C34.4,117,36.2,114.2,35.8,112.6"/>
	<path class="st0" d="M68.9,131.7h-1.8v-0.4h4.2v0.4h-1.8v4.7h-0.6C68.9,136.4,68.9,131.7,68.9,131.7z"/>
	<path class="st0" d="M77.7,132.6l-1.5,3.9h-0.5l-1.2-3.1l-1.2,3.1h-0.5l-1.5-3.9h0.5l1.2,3.3l1.2-3.3h0.4l1.2,3.3l1.2-3.3H77.7z"/>
	<path class="st0" d="M81.2,132.9c0.3,0.2,0.4,0.6,0.4,1.1v2.4h-0.5v-0.6c-0.1,0.2-0.3,0.3-0.5,0.4c-0.2,0.1-0.5,0.2-0.8,0.2
		c-0.4,0-0.8-0.1-1-0.3c-0.3-0.2-0.4-0.5-0.4-0.8c0-0.3,0.1-0.6,0.3-0.8c0.2-0.2,0.6-0.3,1.1-0.3h1.2V134c0-0.3-0.1-0.6-0.3-0.8
		c-0.2-0.2-0.4-0.3-0.8-0.3c-0.2,0-0.5,0.1-0.7,0.1c-0.2,0.1-0.4,0.2-0.6,0.3l-0.2-0.4c0.2-0.2,0.4-0.3,0.7-0.4
		c0.3-0.1,0.6-0.1,0.8-0.1C80.5,132.5,80.9,132.6,81.2,132.9z M80.5,135.8c0.2-0.1,0.4-0.3,0.4-0.6v-0.7h-1.2c-0.7,0-1,0.2-1,0.7
		c0,0.2,0.1,0.4,0.3,0.5c0.2,0.1,0.4,0.2,0.7,0.2C80.1,136.1,80.3,135.9,80.5,135.8z"/>
	<path class="st0" d="M88.8,132.6l-1.5,3.9h-0.5l-1.2-3.1l-1.2,3.1h-0.5l-1.5-3.9h0.5l1.2,3.3l1.2-3.3h0.4l1.2,3.3l1.2-3.3H88.8z"/>
	<path class="st0" d="M93,134.7h-3.3c0.1,0.4,0.2,0.7,0.4,1c0.3,0.2,0.6,0.4,1.1,0.4c0.2,0,0.4-0.1,0.7-0.1c0.2-0.1,0.4-0.2,0.5-0.4
		l0.3,0.3c-0.2,0.2-0.4,0.3-0.6,0.4c-0.3,0.1-0.6,0.2-0.8,0.2c-0.4,0-0.7-0.1-1.1-0.3c-0.3-0.2-0.6-0.4-0.7-0.7
		c-0.2-0.3-0.3-0.6-0.3-1c0-0.4,0.1-0.7,0.2-1c0.2-0.3,0.4-0.5,0.7-0.7c0.3-0.2,0.6-0.2,1-0.2s0.7,0.1,1,0.2
		c0.3,0.2,0.5,0.4,0.7,0.7s0.2,0.6,0.2,1L93,134.7z M90.2,133.3c-0.2,0.2-0.4,0.6-0.4,1h2.8c-0.1-0.4-0.2-0.7-0.4-1
		c-0.2-0.2-0.6-0.3-1-0.3C90.8,133,90.5,133.1,90.2,133.3z"/>
	<path class="st0" d="M97,136v0.4h-3.1v-0.3l2.4-3.1h-2.4v-0.4h3v0.3l-2.4,3.1H97z"/>
	<path class="st0" d="M100.6,132.9c0.3,0.2,0.4,0.6,0.4,1.1v2.4h-0.5v-0.6c-0.1,0.2-0.3,0.3-0.5,0.4c-0.2,0.1-0.5,0.2-0.8,0.2
		c-0.4,0-0.8-0.1-1-0.3c-0.3-0.2-0.4-0.5-0.4-0.8c0-0.3,0.1-0.6,0.3-0.8c0.2-0.2,0.6-0.3,1.1-0.3h1.2V134c0-0.3-0.1-0.6-0.3-0.8
		c-0.2-0.2-0.4-0.3-0.8-0.3c-0.2,0-0.5,0.1-0.7,0.1c-0.2,0.1-0.4,0.2-0.6,0.3l-0.2-0.4c0.2-0.2,0.4-0.3,0.7-0.4
		c0.3-0.1,0.6-0.1,0.8-0.1C99.9,132.5,100.3,132.6,100.6,132.9z M100,135.8c0.2-0.1,0.4-0.3,0.4-0.6v-0.7h-1.2c-0.7,0-1,0.2-1,0.7
		c0,0.2,0.1,0.4,0.3,0.5c0.2,0.1,0.4,0.2,0.7,0.2C99.5,136.1,99.8,135.9,100,135.8z"/>
</g>
</svg>
